<svg width="34" height="33" viewBox="0 0 34 33" fill="none" xmlns="http://www.w3.org/2000/svg">
<path fill-rule="evenodd" clip-rule="evenodd" d="M16.8348 0.509277C7.89263 0.509277 0.643555 7.742 0.643555 16.664C0.643555 25.5859 7.89263 32.8186 16.8348 32.8186C25.7769 32.8186 33.026 25.5859 33.026 16.664C33.026 7.742 25.7769 0.509277 16.8348 0.509277ZM13.2765 8.10001C14.1976 8.05821 14.4919 8.04798 16.8371 8.04798H16.8344C19.1804 8.04798 19.4736 8.05821 20.3947 8.10001C21.3141 8.14201 21.9419 8.2872 22.4924 8.50031C23.0609 8.72015 23.5412 9.01457 24.0216 9.49382C24.5019 9.97267 24.797 10.4534 25.0183 11.0201C25.2306 11.5679 25.3763 12.194 25.4195 13.1113C25.4608 14.0303 25.4716 14.3239 25.4716 16.6639C25.4716 19.0038 25.4608 19.2968 25.4195 20.2157C25.3763 21.1327 25.2306 21.7589 25.0183 22.3069C24.797 22.8734 24.5019 23.3541 24.0216 23.8331C23.5418 24.3123 23.0608 24.6074 22.4929 24.8274C21.9435 25.0405 21.3153 25.1857 20.396 25.2277C19.4749 25.2695 19.1815 25.2798 16.8361 25.2798C14.491 25.2798 14.1969 25.2695 13.2757 25.2277C12.3566 25.1857 11.7289 25.0405 11.1795 24.8274C10.6119 24.6074 10.1301 24.3123 9.65032 23.8331C9.17012 23.3541 8.8751 22.8734 8.65436 22.3068C8.44098 21.7589 8.29546 21.1329 8.25316 20.2156C8.21147 19.2965 8.20101 19.0038 8.20101 16.6639C8.20101 14.3239 8.2118 14.0301 8.25302 13.1111C8.29438 12.1941 8.4401 11.5679 8.65416 11.0199C8.87544 10.4534 9.17052 9.97267 9.65086 9.49382C10.1309 9.0147 10.6126 8.72035 11.1806 8.50031C11.7296 8.2872 12.3572 8.14201 13.2765 8.10001ZM16.5493 9.60051H16.5491C16.3746 9.60044 16.2128 9.60038 16.0624 9.60058V9.59842C14.453 9.60024 14.1443 9.61101 13.3477 9.64689C12.5058 9.68552 12.0486 9.82553 11.7443 9.944C11.3412 10.1005 11.0534 10.2872 10.7511 10.5888C10.4489 10.8903 10.2615 11.1775 10.105 11.5796C9.98676 11.8833 9.84604 12.3392 9.80758 13.1792C9.76616 14.0875 9.75793 14.3589 9.75793 16.6598C9.75793 18.9605 9.76616 19.2334 9.80758 20.1416C9.8459 20.9817 9.98676 21.4376 10.105 21.741C10.2618 22.1432 10.4489 22.4297 10.7511 22.7312C11.0534 23.0328 11.3412 23.2195 11.7443 23.3757C12.0488 23.4936 12.5058 23.6339 13.3477 23.6727C14.258 23.714 14.5313 23.723 16.8371 23.723C19.1428 23.723 19.4163 23.714 20.3265 23.6727C21.1685 23.6343 21.6258 23.4943 21.9299 23.3759C22.333 23.2197 22.62 23.033 22.9222 22.7314C23.2244 22.4301 23.4119 22.1437 23.5684 21.7417C23.6866 21.4383 23.8273 20.9824 23.8658 20.1424C23.9072 19.2341 23.9162 18.9613 23.9162 16.6619C23.9162 14.3625 23.9072 14.0897 23.8658 13.1814C23.8275 12.3414 23.6866 11.8855 23.5684 11.5821C23.4116 11.18 23.2244 10.8928 22.9222 10.5913C22.6202 10.2897 22.3328 10.103 21.9299 9.94683C21.6255 9.8289 21.1685 9.68855 20.3265 9.65012C19.4161 9.60886 19.1428 9.60058 16.8371 9.60058L16.5493 9.60051ZM21.4466 11.0312C20.8745 11.0312 20.4104 11.4938 20.4104 12.0648C20.4104 12.6356 20.8745 13.0987 21.4466 13.0987C22.0187 13.0987 22.4829 12.6356 22.4829 12.0648C22.4829 11.494 22.0187 11.0309 21.4466 11.0309V11.0312ZM12.4025 16.6639C12.4025 14.2204 14.388 12.2393 16.8369 12.2392C19.286 12.2392 21.271 14.2203 21.271 16.6639C21.271 19.1074 19.2862 21.0876 16.8371 21.0876C14.3881 21.0876 12.4025 19.1074 12.4025 16.6639ZM16.8371 13.7919C18.4268 13.7919 19.7156 15.0776 19.7156 16.6639C19.7156 18.2499 18.4268 19.5358 16.8371 19.5358C15.2473 19.5358 13.9587 18.2499 13.9587 16.6639C13.9587 15.0776 15.2473 13.7919 16.8371 13.7919Z" fill="white"/>
</svg>
