<svg width="34" height="33" viewBox="0 0 34 33" fill="none" xmlns="http://www.w3.org/2000/svg">
<path fill-rule="evenodd" clip-rule="evenodd" d="M16.8855 0.509277C7.94341 0.509277 0.694336 7.742 0.694336 16.664C0.694336 25.5859 7.94341 32.8186 16.8855 32.8186C25.8277 32.8186 33.0768 25.5859 33.0768 16.664C33.0768 7.742 25.8277 0.509277 16.8855 0.509277ZM10.3022 12.3878C11.5815 12.3878 12.3784 11.5427 12.3784 10.4866C12.3546 9.40803 11.5815 8.58657 10.3263 8.58657C9.0711 8.58657 8.25048 9.40803 8.25048 10.4866C8.25048 11.5427 9.04688 12.3878 10.2787 12.3878H10.3022ZM12.1367 24.8891V13.8892H8.46744V24.8891H12.1367ZM25.3696 18.5821L25.3694 24.8891H21.7003V19.0041C21.7003 17.526 21.1693 16.5173 19.841 16.5173C18.8273 16.5173 18.2235 17.1973 17.9583 17.854C17.8613 18.0894 17.8375 18.4174 17.8375 18.7461V24.8893H14.1678C14.1678 24.8893 14.2161 14.9217 14.1678 13.8895H17.8375V15.4475C18.3244 14.6986 19.1967 13.6309 21.1448 13.6309C23.5594 13.6309 25.3696 15.2035 25.3696 18.5821Z" fill="white"/>
</svg>
