<svg width="34" height="33" viewBox="0 0 34 33" fill="none" xmlns="http://www.w3.org/2000/svg">
<g clip-path="url(#clip0_626_5946)">
<path fill-rule="evenodd" clip-rule="evenodd" d="M16.8934 0.509277C7.95122 0.509277 0.702148 7.742 0.702148 16.664C0.702148 25.5859 7.95122 32.8186 16.8934 32.8186C25.8355 32.8186 33.0846 25.5859 33.0846 16.664C33.0846 7.742 25.8355 0.509277 16.8934 0.509277ZM16.4426 14.1993L16.4086 13.6403C16.3067 12.1915 17.2014 10.8682 18.6171 10.3548C19.138 10.1723 20.0214 10.1495 20.599 10.3092C20.8255 10.3777 21.2559 10.6058 21.5616 10.8112L22.1166 11.1876L22.7282 10.9937C23.068 10.891 23.521 10.7199 23.7248 10.6058C23.9173 10.5031 24.0872 10.4461 24.0872 10.4803C24.0872 10.6742 23.6682 11.3359 23.3171 11.701C22.8414 12.2143 22.9774 12.26 23.94 11.9177C24.5176 11.7238 24.5289 11.7238 24.4157 11.9406C24.3477 12.0546 23.9966 12.4539 23.6229 12.819C22.9886 13.4464 22.9547 13.5148 22.9547 14.0396C22.9547 14.8496 22.5696 16.5379 22.1845 17.462C21.471 19.196 19.9421 20.9871 18.4132 21.8883C16.2614 23.1545 13.396 23.4739 10.9837 22.7324C10.1796 22.4815 8.79791 21.8426 8.79791 21.7286C8.79791 21.6943 9.21692 21.6487 9.72661 21.6373C10.7912 21.6145 11.8558 21.3179 12.7618 20.7931L13.3734 20.428L12.6712 20.1885C11.6745 19.8463 10.7798 19.0591 10.5534 18.3176C10.4854 18.078 10.508 18.0666 11.1423 18.0666L11.7992 18.0552L11.2442 17.7928C10.5873 17.462 9.98708 16.903 9.69261 16.3326C9.47747 15.9219 9.20566 14.8838 9.28493 14.8039C9.30753 14.7697 9.5454 14.8382 9.81721 14.9295C10.5986 15.2147 10.7006 15.1462 10.2476 14.667C9.39813 13.8 9.13765 12.511 9.5454 11.2903L9.73794 10.7427L10.4854 11.4842C12.0144 12.9786 13.8151 13.8685 15.8763 14.1309L16.4426 14.1993Z" fill="white"/>
</g>
<defs>
<clipPath id="clip0_626_5946">
<rect width="32.3824" height="32.3094" fill="white" transform="translate(0.702148 0.509277)"/>
</clipPath>
</defs>
</svg>
